<svg xmlns="http://www.w3.org/2000/svg" xmlns:xlink="http://www.w3.org/1999/xlink"><symbol id="icon-arrow-right" viewBox="0 0 32 32"><path d="M12 25a1 1 0 0 1-.71-.29 1 1 0 0 1 0-1.42l7.3-7.29-7.3-7.29a1 1 0 1 1 1.42-1.42l8 8a1 1 0 0 1 0 1.42l-8 8A1 1 0 0 1 12 25Z" data-name="Layer 2"/><path style="fill:none" d="M0 0h32v32H0z"/></symbol><symbol id="icon-check" viewBox="0 0 24 24"><path clip-rule="evenodd" d="M21.652 3.211a.747.747 0 0 0-1.061 0L9.41 14.34a.744.744 0 0 1-1.062 0L3.449 9.351a.743.743 0 0 0-1.062 0L.222 11.297a.751.751 0 0 0 .001 1.07l4.94 5.184c.292.296.771.776 1.062 1.07l2.124 2.141a.751.751 0 0 0 1.062 0l14.366-14.34a.762.762 0 0 0 0-1.071l-2.125-2.14z" fill-rule="evenodd"/></symbol><symbol id="icon-close" viewBox="0 0 94.926 94.926"><g style="enable-background:new 0 0 94.926 94.926"><path d="M55.931 47.463 94.306 9.09a2.118 2.118 0 0 0 0-2.994L88.833.62a2.123 2.123 0 0 0-2.996 0L47.463 38.994 9.089.62c-.795-.795-2.202-.794-2.995 0L.622 6.096a2.117 2.117 0 0 0 0 2.994l38.374 38.373L.622 85.836a2.117 2.117 0 0 0 0 2.994l5.473 5.476a2.123 2.123 0 0 0 2.995 0l38.374-38.374 38.374 38.374c.397.396.937.62 1.498.62s1.101-.224 1.498-.62l5.473-5.476a2.118 2.118 0 0 0 0-2.994L55.931 47.463z"/></g></symbol><symbol id="icon-insta" viewBox="0 0 56.7 56.7"><path d="M28.2 16.7c-7 0-12.8 5.7-12.8 12.8s5.7 12.8 12.8 12.8S41 36.5 41 29.5s-5.8-12.8-12.8-12.8zm0 21c-4.5 0-8.2-3.7-8.2-8.2s3.7-8.2 8.2-8.2 8.2 3.7 8.2 8.2-3.7 8.2-8.2 8.2z"/><circle cx="41.5" cy="16.4" r="2.9"/><path d="M49 8.9c-2.6-2.7-6.3-4.1-10.5-4.1H17.9c-8.7 0-14.5 5.8-14.5 14.5v20.5c0 4.3 1.4 8 4.2 10.7 2.7 2.6 6.3 3.9 10.4 3.9h20.4c4.3 0 7.9-1.4 10.5-3.9 2.7-2.6 4.1-6.3 4.1-10.6V19.3c0-4.2-1.4-7.8-4-10.4zm-.4 31c0 3.1-1.1 5.6-2.9 7.3s-4.3 2.6-7.3 2.6H18c-3 0-5.5-.9-7.3-2.6C8.9 45.4 8 42.9 8 39.8V19.3c0-3 .9-5.5 2.7-7.3 1.7-1.7 4.3-2.6 7.3-2.6h20.6c3 0 5.5.9 7.3 2.7 1.7 1.8 2.7 4.3 2.7 7.2v20.6z"/></symbol><symbol id="icon-quote" viewBox="0 0 48 48"><path d="M12 34h6l4-8V14H10v12h6zm16 0h6l4-8V14H26v12h6z"/><path d="M0 0h48v48H0z" fill="none"/></symbol><symbol id="icon-vk" viewBox="0 0 512 512"><path d="M484.7 132c3.56-11.28 0-19.48-15.75-19.48h-52.37c-13.21 0-19.31 7.18-22.87 14.86 0 0-26.94 65.6-64.56 108.13-12.2 12.3-17.79 16.4-24.4 16.4-3.56 0-8.14-4.1-8.14-15.37V131.47c0-13.32-4.06-19.47-15.25-19.47H199c-8.14 0-13.22 6.15-13.22 12.3 0 12.81 18.81 15.89 20.84 51.76V254c0 16.91-3 20-9.66 20-17.79 0-61-66.11-86.92-141.44C105 117.64 99.88 112 86.66 112H33.79C18.54 112 16 119.17 16 126.86c0 13.84 17.79 83.53 82.86 175.77 43.21 63 104.72 96.86 160.13 96.86 33.56 0 37.62-7.69 37.62-20.5v-47.66c0-15.37 3.05-17.93 13.73-17.93 7.62 0 21.35 4.09 52.36 34.33C398.28 383.6 404.38 400 424.21 400h52.36c15.25 0 22.37-7.69 18.3-22.55-4.57-14.86-21.86-36.38-44.23-62-12.2-14.34-30.5-30.23-36.09-37.92-7.62-10.25-5.59-14.35 0-23.57-.51 0 63.55-91.22 70.15-122" style="fill-rule:evenodd"/></symbol></svg>